<svg width="43" height="38" viewBox="0 0 43 38" fill="none" xmlns="http://www.w3.org/2000/svg">
<path d="M40.1853 38H3.59252C2.84622 38 2.13021 37.7034 1.60221 37.1756C1.07444 36.6475 0.777832 35.9316 0.777832 35.1853V2.81469C0.777832 2.06839 1.07441 1.35238 1.60221 0.824382C2.13028 0.296609 2.84625 0 3.59252 0H40.1853C40.9316 0 41.6476 0.296579 42.1756 0.824382C42.7034 1.35245 43 2.06842 43 2.81469V35.1853C43 35.9316 42.7034 36.6476 42.1756 37.1756C41.6476 37.7034 40.9316 38 40.1853 38ZM3.59252 1.40795C3.21937 1.40795 2.86124 1.55609 2.59737 1.81997C2.3335 2.08386 2.18534 2.44199 2.18534 2.81513V35.1857C2.18534 35.5589 2.33348 35.917 2.59737 36.1809C2.86126 36.4448 3.21939 36.5929 3.59252 36.5929H40.1853C40.5585 36.5929 40.9166 36.4448 41.1805 36.1809C41.4444 35.917 41.5925 35.5589 41.5925 35.1857V2.81513C41.5925 2.44198 41.4444 2.08385 41.1805 1.81997C40.9166 1.5561 40.5585 1.40795 40.1853 1.40795H3.59252Z" fill="white"/>
</svg>
